<svg xmlns="http://www.w3.org/2000/svg" viewBox="0 0 191.75 325.22"><defs><style>.cls-1{fill:#f16049;}.cls-2{fill:#fedd2c;}.cls-3{fill:#faa945;}</style></defs><g id="Layer_2" data-name="Layer 2"><g id="Layer_1-2" data-name="Layer 1"><rect class="cls-1" y="52.98" width="51.39" height="182.39"/><path class="cls-2" d="M70.16,131.34v.15a51.25,51.25,0,0,0,51.43,50.95v-51.1Z"/><path class="cls-2" d="M140.36,0V51.1h51.39A51.25,51.25,0,0,0,140.36,0Z"/><path class="cls-1" d="M121.59,104.75v13a51.21,51.21,0,0,1-51.43-51V53C98.29,53,121.59,76.24,121.59,104.75Z"/><path class="cls-2" d="M121.59,0V104.75C121.59,76.24,98.29,53,70.16,53V51.44A51.55,51.55,0,0,1,121.59,0Z"/><path class="cls-1" d="M121.59,182.44V325.22H70.16V131.49A51.25,51.25,0,0,0,121.59,182.44Z"/><path class="cls-1" d="M191.75,131V196c0,28.18-23.25,51.1-51.39,51.1V182.44A51.54,51.54,0,0,0,191.75,131Z"/><path class="cls-3" d="M191.75,116.43V131a51.54,51.54,0,0,1-51.39,51.44V64.66c.92,0,1.79,0,2.66,0,1.74.09,3.42.29,5.11.53.87.14,1.74.33,2.61.48,1.64.34,3.23.77,4.82,1.25a52.11,52.11,0,0,1,36.14,46.81C191.75,114.65,191.75,115.56,191.75,116.43Z"/></g></g></svg>